Coordinates
version=1
nRows=17
nColumns=38
inDegrees=no

Units are S.I. units (second, meters, Newtons, ...)
If the header above contains a line with 'inDegrees', this indicates whether rotational values are in degrees (yes) or radians (no).

endheader
time	pelvis_tilt	pelvis_list	pelvis_rotation	pelvis_tx	pelvis_ty	pelvis_tz	hip_flexion_r	hip_adduction_r	hip_rotation_r	knee_angle_r	ankle_angle_r	subtalar_angle_r	mtp_angle_r	hip_flexion_l	hip_adduction_l	hip_rotation_l	knee_angle_l	ankle_angle_l	subtalar_angle_l	mtp_angle_l	lumbar_extension	lumbar_bending	lumbar_rotation	arm_flex_r	arm_add_r	arm_rot_r	elbow_flex_r	pro_sup_r	wrist_flex_r	wrist_dev_r	arm_flex_l	arm_add_l	arm_rot_l	elbow_flex_l	pro_sup_l	wrist_flex_l	wrist_dev_l
0.88	3.08567	1.49761	-1.59117	0.674305	0.354936	1.037	0.441237	0.0479732	0.0752351	1.01632	-0.160765	0	0	-0.0925339	0.0499097	-0.436452	0.457216	-0.147716	0	0	-0.417419	-0.0178131	0.00193018	0.0782937	-0.400039	0.97651	0.501755	0.82652	0	0	-0.125765	-0.329321	0.425348	0.581196	1.15864	0	0
0.89	3.09099	1.50371	-1.59683	0.673795	0.364327	1.03633	0.452784	0.0465309	0.0674358	0.965031	-0.156381	0	0	-0.100838	0.053925	-0.435372	0.446136	-0.148119	0	0	-0.410718	-0.0179038	0.00077809	0.0799565	-0.399863	0.978468	0.502199	0.823718	0	0	-0.125782	-0.329567	0.422939	0.582601	1.15775	0	0
0.9	3.0939	1.50977	-1.60009	0.673373	0.37379	1.03555	0.462715	0.045271	0.0576204	0.91211	-0.151356	0	0	-0.108963	0.0573531	-0.433883	0.435616	-0.147938	0	0	-0.404043	-0.0178821	0.000116601	0.0812722	-0.399113	0.979981	0.501489	0.820604	0	0	-0.125268	-0.329458	0.420981	0.582702	1.1566	0	0
0.91	3.09239	1.51611	-1.59881	0.673009	0.383294	1.03465	0.471491	0.0444708	0.0459699	0.857587	-0.144844	0	0	-0.116313	0.0600755	-0.431634	0.426286	-0.146301	0	0	-0.397073	-0.0175062	-3.98319e-05	0.0823382	-0.397768	0.981347	0.49931	0.817303	0	0	-0.124077	-0.328885	0.420246	0.580962	1.15677	0	0
0.92	3.08274	1.52272	-1.58881	0.672631	0.392853	1.03364	0.478828	0.0441518	0.0315542	0.801064	-0.136904	0	0	-0.122946	0.0620386	-0.428005	0.417923	-0.144267	0	0	-0.389705	-0.0163324	-9.64677e-05	0.083743	-0.39573	0.984614	0.494756	0.814939	0	0	-0.121901	-0.327459	0.420203	0.577066	1.15744	0	0
0.93	3.05626	1.52914	-1.56113	0.672224	0.402489	1.03253	0.483488	0.0448821	0.0137605	0.742082	-0.128419	0	0	-0.129239	0.0628596	-0.423159	0.411259	-0.142382	0	0	-0.382438	-0.0143083	-0.000614867	0.0854877	-0.393016	0.989198	0.488404	0.814524	0	0	-0.11949	-0.325757	0.421227	0.571829	1.16058	0	0
0.94	3.00134	1.5357	-1.50458	0.671838	0.412156	1.0313	0.486638	0.0468643	-0.0056732	0.682808	-0.121866	0	0	-0.134628	0.0625245	-0.417461	0.406634	-0.140183	0	0	-0.374934	-0.0114481	-0.00161861	0.0872847	-0.389504	0.992654	0.480607	0.814048	0	0	-0.117119	-0.323483	0.42149	0.565731	1.16378	0	0
0.95	2.90583	1.54141	-1.40703	0.671533	0.421894	1.03007	0.487748	0.0497539	-0.0262151	0.623959	-0.118365	0	0	-0.140562	0.0611831	-0.411646	0.402639	-0.137841	0	0	-0.368282	-0.00806555	-0.00235042	0.0886066	-0.385835	0.994861	0.472618	0.81364	0	0	-0.114366	-0.320673	0.420751	0.558887	1.166	0	0
0.96	2.75793	1.54599	-1.25683	0.671389	0.431748	1.0288	0.486246	0.0537383	-0.0455495	0.565847	-0.117814	0	0	-0.147167	0.0588486	-0.406036	0.399193	-0.135328	0	0	-0.362339	-0.00440531	-0.00274611	0.088984	-0.382658	0.995562	0.466078	0.813482	0	0	-0.111773	-0.318482	0.420528	0.552934	1.16822	0	0
0.97	2.53674	1.54847	-1.03294	0.671429	0.441769	1.02749	0.481148	0.0595572	-0.0604405	0.508355	-0.120189	0	0	-0.154744	0.0549083	-0.399794	0.396668	-0.1323	0	0	-0.357222	6.52312e-05	-0.00308121	0.0886654	-0.379584	0.995326	0.460285	0.813854	0	0	-0.109679	-0.31727	0.421409	0.548143	1.17112	0	0
0.98	2.28209	1.54815	-0.775596	0.67169	0.451922	1.02615	0.472409	0.0679356	-0.0670236	0.451389	-0.124104	0	0	-0.163394	0.0493628	-0.393354	0.395004	-0.128731	0	0	-0.353059	0.00520986	-0.00282657	0.087779	-0.376373	0.994104	0.454711	0.814971	0	0	-0.107881	-0.316514	0.422361	0.544119	1.1734	0	0
0.99	2.07033	1.54549	-0.561095	0.672119	0.462206	1.02477	0.462043	0.0781926	-0.0669896	0.39872	-0.127039	0	0	-0.172922	0.0428511	-0.387188	0.394145	-0.124945	0	0	-0.349804	0.0106748	-0.00241711	0.0864332	-0.373104	0.991764	0.449506	0.816552	0	0	-0.106654	-0.316143	0.423029	0.541092	1.17382	0	0
1	1.93524	1.54165	-0.42264	0.672571	0.472622	1.0234	0.452385	0.0886302	-0.0657812	0.354742	-0.128876	0	0	-0.183234	0.0361787	-0.381412	0.393947	-0.121381	0	0	-0.347524	0.0162552	-0.00266112	0.0849957	-0.369279	0.988508	0.443399	0.818682	0	0	-0.105673	-0.315904	0.424073	0.538104	1.1732	0	0
1.01	1.85893	1.53825	-0.342411	0.672912	0.483176	1.02201	0.44638	0.0971321	-0.0692206	0.326151	-0.12755	0	0	-0.193886	0.0307216	-0.376313	0.394253	-0.118495	0	0	-0.345887	0.0209692	-0.00371107	0.0835549	-0.365307	0.985423	0.436739	0.820916	0	0	-0.104671	-0.315355	0.425908	0.534163	1.17382	0	0
1.02	1.85235	1.53531	-0.333248	0.673142	0.4937	1.02071	0.442839	0.104058	-0.0772428	0.313555	-0.123302	0	0	-0.20627	0.0271432	-0.37371	0.394145	-0.116484	0	0	-0.346425	0.0244567	-0.00443888	0.082946	-0.362068	0.982823	0.43053	0.823997	0	0	-0.103643	-0.314195	0.427094	0.530271	1.17401	0	0
1.03	1.85713	1.53343	-0.33588	0.67329	0.504335	1.01934	0.442807	0.10893	-0.0901148	0.316061	-0.117913	0	0	-0.218405	0.0248819	-0.372765	0.394268	-0.115391	0	0	-0.347044	0.0269824	-0.00572027	0.0824603	-0.359757	0.980805	0.425709	0.826657	0	0	-0.103181	-0.312678	0.427317	0.526587	1.1737	0	0
1.04	1.86417	1.53232	-0.340328	0.673321	0.515151	1.0179	0.445076	0.111922	-0.106093	0.330418	-0.111465	0	0	-0.230108	0.0233279	-0.372706	0.394839	-0.114684	0	0	-0.347234	0.0292474	-0.00814524	0.0818122	-0.357666	0.97859	0.421136	0.830614	0	0	-0.103168	-0.31063	0.426733	0.52254	1.17316	0	0
